<svg width="220" height="220" viewBox="0 0 220 220" fill="none" xmlns="http://www.w3.org/2000/svg">
<path fill-rule="evenodd" clip-rule="evenodd" d="M56.7744 62.8247C42.23 88.2797 71.446 122.728 71.446 122.728C101.507 156.868 124.827 154.17 134.666 151.608C142.778 149.519 145.676 145.222 145.676 145.222C145.676 145.222 129.069 127.898 122.683 122.674C122.436 122.476 121.935 122.936 121.3 123.52C120.741 124.033 120.079 124.641 119.394 124.981C117.378 125.99 113.299 126.099 113.299 126.099C79.0225 122.138 79.4132 91.2595 79.504 89.7605C79.6494 87.4621 80.0673 85.9086 80.7395 84.7095C81.4118 83.5103 82.3657 82.0568 82.3657 82.0568L59.6542 59.3907C58.8003 59.7087 56.7744 62.8247 56.7744 62.8247ZM84.3915 80.1308L87.7619 76.4698C88.6613 75.5885 91.8409 72.0001 90.3964 69.9379L71.5096 51.2328C70.6193 50.3334 67.4669 52.0595 65.1595 54.2852L61.8254 57.5647L84.3915 80.1308ZM124.418 120.575L147.22 143.105C147.22 143.105 149.41 140.752 150.527 139.353L150.579 139.288C151.216 138.487 154.475 134.389 153.162 132.812C153.162 132.812 139.535 118.132 134.275 114.107C132.821 112.999 130.051 114.979 127.925 117.16C127.071 118.032 124.418 120.575 124.418 120.575Z" fill="#616161"/>
<path fill-rule="evenodd" clip-rule="evenodd" d="M56.7744 62.8247C42.23 88.2797 71.446 122.728 71.446 122.728C101.507 156.868 124.827 154.17 134.666 151.608C142.778 149.519 145.676 145.222 145.676 145.222C145.676 145.222 129.069 127.898 122.683 122.674C122.436 122.476 121.935 122.936 121.3 123.52C120.741 124.033 120.079 124.641 119.394 124.981C117.378 125.99 113.299 126.099 113.299 126.099C79.0225 122.138 79.4132 91.2595 79.504 89.7605C79.6494 87.4621 80.0673 85.9086 80.7395 84.7095C81.4118 83.5103 82.3657 82.0568 82.3657 82.0568L59.6542 59.3907C58.8003 59.7087 56.7744 62.8247 56.7744 62.8247ZM84.3915 80.1308L87.7619 76.4698C88.6613 75.5885 91.8409 72.0001 90.3964 69.9379L71.5096 51.2328C70.6193 50.3334 67.4669 52.0595 65.1595 54.2852L61.8254 57.5647L84.3915 80.1308ZM124.418 120.575L147.22 143.105C147.22 143.105 149.41 140.752 150.527 139.353L150.579 139.288C151.216 138.487 154.475 134.389 153.162 132.812C153.162 132.812 139.535 118.132 134.275 114.107C132.821 112.999 130.051 114.979 127.925 117.16C127.071 118.032 124.418 120.575 124.418 120.575Z" fill="#616161"/>
<path fill-rule="evenodd" clip-rule="evenodd" d="M167.979 150.654C170.977 154.043 175.71 158.449 182.487 162.21C186.502 164.445 181.124 168.587 181.124 168.587L156.151 163.536C141.706 176.255 122.747 183.977 101.988 183.977C56.7108 183.977 20 147.266 20 101.988C20 56.7108 56.7199 20 101.997 20C147.275 20 183.986 56.7108 183.986 101.988C183.986 120.212 178.035 137.046 167.979 150.654ZM101.993 173.737C141.616 173.737 173.737 141.616 173.737 101.993C173.737 62.3699 141.616 30.2491 101.993 30.2491C62.3699 30.2491 30.2491 62.3699 30.2491 101.993C30.2491 141.616 62.3699 173.737 101.993 173.737ZM71.446 122.728C71.446 122.728 42.23 88.2797 56.7744 62.8247C56.7744 62.8247 58.8003 59.7087 59.6542 59.3907L82.3657 82.0568C82.3657 82.0568 81.4118 83.5103 80.7395 84.7095C80.0673 85.9086 79.6494 87.4621 79.504 89.7605C79.4132 91.2595 79.0225 122.138 113.299 126.099C113.299 126.099 117.378 125.99 119.394 124.981C120.079 124.641 120.741 124.033 121.3 123.52C121.935 122.936 122.436 122.476 122.683 122.674C129.069 127.898 145.676 145.222 145.676 145.222C145.676 145.222 142.778 149.519 134.666 151.608C124.827 154.17 101.507 156.868 71.446 122.728ZM87.7619 76.4698L84.3915 80.1308L61.8254 57.5647L65.1595 54.2852C67.4669 52.0595 70.6193 50.3334 71.5096 51.2328L90.3964 69.9379C91.8409 72.0001 88.6613 75.5885 87.7619 76.4698ZM147.22 143.105L124.418 120.575C124.418 120.575 127.071 118.032 127.925 117.16C130.051 114.979 132.821 112.999 134.275 114.107C139.535 118.132 153.162 132.812 153.162 132.812C154.475 134.389 151.216 138.487 150.579 139.288L150.527 139.353C149.41 140.752 147.22 143.105 147.22 143.105Z" fill="#616161"/>
<path fill-rule="evenodd" clip-rule="evenodd" d="M173.737 101.993C173.737 141.616 141.616 173.737 101.993 173.737C62.3699 173.737 30.2491 141.616 30.2491 101.993C30.2491 62.3699 62.3699 30.2491 101.993 30.2491C141.616 30.2491 173.737 62.3699 173.737 101.993ZM56.7744 62.8247C42.23 88.2797 71.446 122.728 71.446 122.728C101.507 156.868 124.827 154.17 134.666 151.608C142.778 149.519 145.676 145.222 145.676 145.222C145.676 145.222 129.069 127.898 122.683 122.674C122.436 122.476 121.935 122.936 121.3 123.52C120.741 124.033 120.079 124.641 119.394 124.981C117.378 125.99 113.299 126.099 113.299 126.099C79.0225 122.138 79.4132 91.2595 79.504 89.7605C79.6494 87.4621 80.0673 85.9086 80.7395 84.7095C81.4118 83.5103 82.3657 82.0568 82.3657 82.0568L59.6542 59.3907C58.8003 59.7087 56.7744 62.8247 56.7744 62.8247ZM84.3915 80.1308L87.7619 76.4698C88.6613 75.5885 91.8409 72.0001 90.3964 69.9379L71.5096 51.2328C70.6193 50.3334 67.4669 52.0595 65.1595 54.2852L61.8254 57.5647L84.3915 80.1308ZM124.418 120.575L147.22 143.105C147.22 143.105 149.41 140.752 150.527 139.353L150.579 139.288C151.216 138.487 154.475 134.389 153.162 132.812C153.162 132.812 139.535 118.132 134.275 114.107C132.821 112.999 130.051 114.979 127.925 117.16C127.071 118.032 124.418 120.575 124.418 120.575Z" fill="#858585"/>
<path d="M114.584 194.235C110.439 194.235 107.304 193.167 105.179 191.032C103.055 188.849 101.993 185.741 101.993 181.708V178.861H110.076V182.278C110.076 185.504 111.553 187.117 114.506 187.117C115.957 187.117 117.045 186.738 117.77 185.979C118.548 185.172 118.936 183.891 118.936 182.135C118.936 180.047 118.418 178.221 117.382 176.655C116.345 175.041 114.428 173.12 111.63 170.89C108.107 168.043 105.646 165.48 104.247 163.203C102.848 160.878 102.148 158.268 102.148 155.374C102.148 151.435 103.236 148.399 105.413 146.263C107.589 144.081 110.75 142.989 114.895 142.989C118.988 142.989 122.071 144.081 124.144 146.263C126.268 148.399 127.33 151.483 127.33 155.516V157.58H119.247V155.018C119.247 153.31 118.884 152.076 118.159 151.317C117.434 150.51 116.371 150.107 114.972 150.107C112.123 150.107 110.698 151.696 110.698 154.875C110.698 156.679 111.216 158.363 112.252 159.929C113.34 161.495 115.283 163.393 118.081 165.623C121.656 168.47 124.118 171.056 125.465 173.381C126.812 175.706 127.486 178.434 127.486 181.566C127.486 185.646 126.372 188.778 124.144 190.961C121.967 193.144 118.781 194.235 114.584 194.235Z" fill="#858585"/>
<path fill-rule="evenodd" clip-rule="evenodd" d="M134.719 143.701H145.445L153.761 173.523H153.916V143.701H161.533V193.523H152.75L142.491 157.153H142.336V193.523H134.719V143.701Z" fill="#858585"/>
<path fill-rule="evenodd" clip-rule="evenodd" d="M101.352 142.17C104.94 138.587 109.773 137.224 114.895 137.224C119.958 137.224 124.773 138.586 128.278 142.245C128.527 142.498 128.766 142.757 128.994 143.022C129.33 140.158 131.765 137.936 134.719 137.936H145.445C147.094 137.936 148.615 138.636 149.681 139.79C150.734 138.65 152.242 137.936 153.916 137.936H161.533C164.501 137.936 166.946 140.179 167.263 143.063C167.528 142.758 167.808 142.46 168.102 142.17C171.689 138.587 176.522 137.224 181.644 137.224C186.707 137.224 191.522 138.586 195.027 142.245C198.516 145.782 199.845 150.514 199.845 155.516V157.58C199.845 160.764 197.263 163.345 194.079 163.345H191.073C193.665 165.667 195.785 168.045 197.202 170.49C199.137 173.83 200 177.589 200 181.566C200 186.686 198.58 191.486 194.951 195.055C191.352 198.65 186.482 200 181.333 200C176.244 200 171.403 198.678 167.842 195.098L167.797 195.053C167.6 194.85 167.41 194.644 167.227 194.434C166.79 197.185 164.407 199.288 161.533 199.288H152.75C150.498 199.288 148.486 197.982 147.544 195.999C146.617 197.944 144.634 199.288 142.336 199.288H134.719C131.77 199.288 129.338 197.073 128.995 194.216C128.743 194.503 128.479 194.783 128.202 195.055C124.602 198.65 119.733 200 114.584 200C109.494 200 104.654 198.678 101.093 195.098L101.048 195.053C97.5715 191.481 96.2278 186.741 96.2278 181.708V178.861C96.2278 175.677 98.8089 173.096 101.993 173.096H105.333C102.82 170.826 100.757 168.536 99.3344 166.22L99.307 166.175C97.3318 162.892 96.3832 159.243 96.3832 155.374C96.3832 150.371 97.7905 145.679 101.352 142.17ZM128.954 168.255V163.113C128.439 163.264 127.894 163.345 127.33 163.345H124.323C126.119 164.954 127.688 166.589 128.954 168.255ZM167.298 173.278C167.76 173.159 168.244 173.096 168.742 173.096H172.083C170.213 171.407 168.591 169.706 167.298 167.993V173.278ZM105.179 191.032C107.304 193.167 110.439 194.235 114.584 194.235C118.781 194.235 121.967 193.144 124.144 190.961C126.372 188.778 127.486 185.646 127.486 181.566C127.486 178.434 126.812 175.706 125.465 173.381C124.118 171.056 121.656 168.47 118.081 165.623C115.283 163.393 113.34 161.495 112.252 159.929C111.216 158.363 110.698 156.679 110.698 154.875C110.698 151.696 112.123 150.107 114.972 150.107C116.371 150.107 117.434 150.51 118.159 151.317C118.884 152.076 119.247 153.31 119.247 155.018V157.58H127.33V155.516C127.33 151.483 126.268 148.399 124.144 146.263C122.071 144.081 118.988 142.989 114.895 142.989C110.75 142.989 107.589 144.081 105.413 146.263C103.236 148.399 102.148 151.435 102.148 155.374C102.148 158.268 102.848 160.878 104.247 163.203C105.646 165.48 108.107 168.043 111.63 170.89C114.428 173.12 116.345 175.041 117.382 176.655C118.418 178.221 118.936 180.047 118.936 182.135C118.936 183.891 118.548 185.172 117.77 185.979C117.045 186.738 115.957 187.117 114.506 187.117C111.553 187.117 110.076 185.504 110.076 182.278V178.861H101.993V181.708C101.993 185.741 103.055 188.849 105.179 191.032ZM134.719 143.701H145.445L153.761 173.523H153.916V143.701H161.533V193.523H152.75L142.491 157.153H142.336V193.523H134.719V143.701ZM171.929 191.032C174.053 193.167 177.188 194.235 181.333 194.235C185.53 194.235 188.717 193.144 190.893 190.961C193.121 188.778 194.235 185.646 194.235 181.566C194.235 178.434 193.561 175.706 192.214 173.381C190.867 171.056 188.406 168.47 184.831 165.623C182.033 163.393 180.09 161.495 179.001 159.929C177.965 158.363 177.447 156.679 177.447 154.875C177.447 151.696 178.872 150.107 181.722 150.107C183.121 150.107 184.183 150.51 184.908 151.317C185.634 152.076 185.996 153.31 185.996 155.018V157.58H194.079V155.516C194.079 151.483 193.017 148.399 190.893 146.263C188.82 144.081 185.737 142.989 181.644 142.989C177.499 142.989 174.338 144.081 172.162 146.263C169.986 148.399 168.898 151.435 168.898 155.374C168.898 158.268 169.597 160.878 170.996 163.203C172.395 165.48 174.856 168.043 178.38 170.89C181.178 173.12 183.095 175.041 184.131 176.655C185.167 178.221 185.686 180.047 185.686 182.135C185.686 183.891 185.297 185.172 184.52 185.979C183.794 186.738 182.706 187.117 181.255 187.117C178.302 187.117 176.825 185.504 176.825 182.278V178.861H168.742V181.708C168.742 185.741 169.804 188.849 171.929 191.032Z" fill="#616161"/>
<path d="M181.333 194.235C177.188 194.235 174.053 193.167 171.929 191.032C169.804 188.849 168.742 185.741 168.742 181.708V178.861H176.825V182.278C176.825 185.504 178.302 187.117 181.255 187.117C182.706 187.117 183.794 186.738 184.52 185.979C185.297 185.172 185.686 183.891 185.686 182.135C185.686 180.047 185.167 178.221 184.131 176.655C183.095 175.041 181.178 173.12 178.38 170.89C174.856 168.043 172.395 165.48 170.996 163.203C169.597 160.878 168.898 158.268 168.898 155.374C168.898 151.435 169.986 148.399 172.162 146.263C174.338 144.081 177.499 142.989 181.644 142.989C185.737 142.989 188.82 144.081 190.893 146.263C193.017 148.399 194.079 151.483 194.079 155.516V157.58H185.996V155.018C185.996 153.31 185.634 152.076 184.908 151.317C184.183 150.51 183.121 150.107 181.722 150.107C178.872 150.107 177.447 151.696 177.447 154.875C177.447 156.679 177.965 158.363 179.001 159.929C180.09 161.495 182.033 163.393 184.831 165.623C188.406 168.47 190.867 171.056 192.214 173.381C193.561 175.706 194.235 178.434 194.235 181.566C194.235 185.646 193.121 188.778 190.893 190.961C188.717 193.144 185.53 194.235 181.333 194.235Z" fill="#858585"/>
</svg>
