<svg xmlns="http://www.w3.org/2000/svg"><symbol id="mastodon-svg-logo" viewBox="0 0 232 232"><path fill-rule="evenodd" clip-rule="evenodd" d="M198.149 105.68C198.149 122.812 193.49 138.857 185.37 152.615C184.465 152.223 183.468 152.006 182.42 152.006H172.603C171.248 152.006 169.977 152.369 168.883 153.003C170.271 151.176 173.064 147.124 171.631 145.403C171.631 145.403 154.067 126.481 147.288 121.294C145.414 119.865 141.843 122.418 139.103 125.228C138.002 126.352 134.583 129.63 134.583 129.63L157.23 152.006H152.839C145.993 145.061 137.034 136.169 132.347 132.335C132.029 132.08 131.383 132.673 130.564 133.426L130.564 133.426C129.844 134.087 128.99 134.871 128.108 135.309C125.509 136.609 120.252 136.75 120.252 136.75C76.0735 131.644 76.577 91.8455 76.6941 89.9135C76.8814 86.9511 77.42 84.9489 78.2865 83.4033C79.153 81.8577 80.3824 79.9843 80.3824 79.9843L51.1099 50.7703C50.0092 51.1801 47.3981 55.1963 47.3981 55.1963C28.652 88.005 66.3082 132.406 66.3082 132.406C79.0295 146.853 90.8142 156.182 101.355 162.079C99.3125 165.777 98.4494 170.034 98.4494 174.482C98.4494 179.469 99.672 184.173 102.218 188.404L102.253 188.462C104.086 191.446 106.746 194.398 109.985 197.324H105.68C104.497 197.324 103.379 197.6 102.386 198.092C52.8418 196.357 13.2099 155.647 13.2099 105.68C13.2099 54.6101 54.6101 13.21 105.68 13.21C156.749 13.21 198.149 54.6101 198.149 105.68ZM0 105.674C0 161.57 43.4091 207.337 98.3517 211.098C98.7823 216.576 100.602 221.658 104.462 225.624L104.519 225.682C109.11 230.296 115.348 232 121.908 232C128.545 232 134.821 230.26 139.46 225.627C139.818 225.276 140.158 224.915 140.483 224.546C140.924 228.228 144.059 231.083 147.86 231.083H157.677C160.639 231.083 163.196 229.35 164.39 226.843C165.604 229.399 168.198 231.083 171.101 231.083H182.42C186.124 231.083 189.196 228.372 189.759 224.826C189.995 225.097 190.24 225.363 190.495 225.624L190.552 225.682C195.142 230.296 201.381 232 207.94 232C214.577 232 220.853 230.26 225.493 225.627C230.17 221.026 232 214.84 232 208.24C232 203.114 230.888 198.269 228.394 193.966C226.568 190.813 223.834 187.749 220.493 184.756H224.369C228.473 184.756 231.8 181.429 231.8 177.325V174.665C231.8 168.218 230.087 162.119 225.59 157.56C221.073 152.844 214.867 151.089 208.341 151.089C205.703 151.089 203.124 151.369 200.684 152.001C207.52 138.014 211.359 122.292 211.359 105.674C211.359 47.3161 164.043 0 105.686 0C47.3279 0 0 47.3161 0 105.674ZM87.3376 72.7832L82.9935 77.502L53.9083 48.4168L58.2055 44.1898C61.1796 41.3211 65.2427 39.0964 66.3901 40.2556L90.7332 64.3645C92.5949 67.0224 88.4968 71.6475 87.3376 72.7832ZM140.43 184.457V191.084C138.798 188.937 136.775 186.829 134.461 184.756H138.337C139.063 184.756 139.766 184.652 140.43 184.457ZM191.712 197.324C191.069 197.324 190.446 197.405 189.851 197.559V190.746C191.518 192.955 193.607 195.147 196.018 197.324H191.712ZM121.908 224.569C116.565 224.569 112.525 223.193 109.787 220.441C107.049 217.628 105.68 213.622 105.68 208.424V204.754H116.098V209.158C116.098 213.316 118.001 215.396 121.808 215.396C123.678 215.396 125.08 214.907 126.015 213.928C127.017 212.888 127.518 211.237 127.518 208.974C127.518 206.283 126.85 203.929 125.514 201.911C124.179 199.831 121.708 197.354 118.101 194.48C113.56 190.811 110.388 187.508 108.585 184.573C106.782 181.576 105.88 178.212 105.88 174.482C105.88 169.406 107.282 165.492 110.087 162.739C112.892 159.926 116.966 158.52 122.309 158.52C127.584 158.52 131.558 159.926 134.229 162.739C136.967 165.492 138.337 169.467 138.337 174.665V177.325H127.918V174.023C127.918 171.821 127.451 170.231 126.516 169.253C125.581 168.213 124.212 167.693 122.409 167.693C118.736 167.693 116.899 169.742 116.899 173.839C116.899 176.163 117.567 178.335 118.903 180.353C120.305 182.371 122.81 184.817 126.416 187.692C131.024 191.361 134.196 194.694 135.932 197.691C137.669 200.687 138.537 204.204 138.537 208.24C138.537 213.5 137.101 217.536 134.229 220.35C131.424 223.163 127.317 224.569 121.908 224.569ZM147.86 159.437H161.684L172.403 197.874H172.603V159.437H182.42V223.652H171.101L157.878 176.775H157.677V223.652H147.86V159.437ZM195.819 220.441C198.557 223.193 202.598 224.569 207.94 224.569C213.35 224.569 217.457 223.163 220.262 220.35C223.134 217.536 224.569 213.5 224.569 208.24C224.569 204.204 223.701 200.687 221.965 197.691C220.229 194.694 217.056 191.361 212.448 187.692C208.842 184.817 206.338 182.371 204.935 180.353C203.6 178.335 202.932 176.163 202.932 173.839C202.932 169.742 204.768 167.693 208.441 167.693C210.244 167.693 211.614 168.213 212.548 169.253C213.483 170.231 213.951 171.821 213.951 174.023V177.325H224.369V174.665C224.369 169.467 223 165.492 220.262 162.739C217.591 159.926 213.617 158.52 208.341 158.52C202.999 158.52 198.925 159.926 196.12 162.739C193.315 165.492 191.913 169.406 191.913 174.482C191.913 178.212 192.814 181.576 194.617 184.573C196.42 187.508 199.593 190.811 204.134 194.48C207.74 197.354 210.211 199.831 211.547 201.911C212.882 203.929 213.55 206.283 213.55 208.974C213.55 211.237 213.049 212.888 212.048 213.928C211.113 214.907 209.71 215.396 207.84 215.396C204.034 215.396 202.13 213.316 202.13 209.158V204.754H191.712V208.424C191.712 213.622 193.081 217.628 195.819 220.441Z" fill="white" fill-opacity="0.5"/></symbol></svg>
